<mxfile host="app.diagrams.net" agent="Mozilla/5.0 (Windows NT 10.0; Win64; x64) AppleWebKit/537.36 (KHTML, like Gecko) Chrome/131.0.0.0 Safari/537.36" version="24.8.9">
  <diagram name="Trang-1" id="SGnvvMwNL3Yg4z6lsMM7">
    <mxGraphModel dx="1034" dy="446" grid="1" gridSize="10" guides="1" tooltips="1" connect="1" arrows="1" fold="1" page="1" pageScale="1" pageWidth="827" pageHeight="1169" math="0" shadow="0">
      <root>
        <mxCell id="0" />
        <mxCell id="1" parent="0" />
        <mxCell id="qAn1MQmWVa7BwKA9rdGR-12" value="" style="edgeStyle=orthogonalEdgeStyle;rounded=0;orthogonalLoop=1;jettySize=auto;html=1;" edge="1" parent="1" source="qAn1MQmWVa7BwKA9rdGR-1" target="qAn1MQmWVa7BwKA9rdGR-11">
          <mxGeometry relative="1" as="geometry" />
        </mxCell>
        <mxCell id="qAn1MQmWVa7BwKA9rdGR-1" value="start" style="ellipse;whiteSpace=wrap;html=1;" vertex="1" parent="1">
          <mxGeometry x="320" y="20" width="120" height="80" as="geometry" />
        </mxCell>
        <mxCell id="qAn1MQmWVa7BwKA9rdGR-14" value="" style="edgeStyle=orthogonalEdgeStyle;rounded=0;orthogonalLoop=1;jettySize=auto;html=1;" edge="1" parent="1" source="qAn1MQmWVa7BwKA9rdGR-11" target="qAn1MQmWVa7BwKA9rdGR-13">
          <mxGeometry relative="1" as="geometry" />
        </mxCell>
        <mxCell id="qAn1MQmWVa7BwKA9rdGR-18" value="" style="edgeStyle=orthogonalEdgeStyle;rounded=0;orthogonalLoop=1;jettySize=auto;html=1;" edge="1" parent="1" source="qAn1MQmWVa7BwKA9rdGR-11" target="qAn1MQmWVa7BwKA9rdGR-17">
          <mxGeometry relative="1" as="geometry" />
        </mxCell>
        <mxCell id="qAn1MQmWVa7BwKA9rdGR-11" value="nhập số điểm mà bạn muốn&amp;nbsp;" style="shape=parallelogram;perimeter=parallelogramPerimeter;whiteSpace=wrap;html=1;fixedSize=1;" vertex="1" parent="1">
          <mxGeometry x="290" y="140" width="180" height="60" as="geometry" />
        </mxCell>
        <mxCell id="qAn1MQmWVa7BwKA9rdGR-22" value="" style="edgeStyle=orthogonalEdgeStyle;rounded=0;orthogonalLoop=1;jettySize=auto;html=1;" edge="1" parent="1" source="qAn1MQmWVa7BwKA9rdGR-13" target="qAn1MQmWVa7BwKA9rdGR-21">
          <mxGeometry relative="1" as="geometry" />
        </mxCell>
        <mxCell id="qAn1MQmWVa7BwKA9rdGR-13" value="nếu điểm &amp;lt; 5" style="whiteSpace=wrap;html=1;" vertex="1" parent="1">
          <mxGeometry x="500" y="230" width="120" height="60" as="geometry" />
        </mxCell>
        <mxCell id="qAn1MQmWVa7BwKA9rdGR-20" value="" style="edgeStyle=orthogonalEdgeStyle;rounded=0;orthogonalLoop=1;jettySize=auto;html=1;" edge="1" parent="1" source="qAn1MQmWVa7BwKA9rdGR-17" target="qAn1MQmWVa7BwKA9rdGR-19">
          <mxGeometry relative="1" as="geometry" />
        </mxCell>
        <mxCell id="qAn1MQmWVa7BwKA9rdGR-17" value="nếu điểm &amp;gt; 5" style="whiteSpace=wrap;html=1;" vertex="1" parent="1">
          <mxGeometry x="140" y="230" width="120" height="60" as="geometry" />
        </mxCell>
        <mxCell id="qAn1MQmWVa7BwKA9rdGR-19" value="thông&amp;nbsp; báo đạt" style="shape=parallelogram;perimeter=parallelogramPerimeter;whiteSpace=wrap;html=1;fixedSize=1;" vertex="1" parent="1">
          <mxGeometry x="140" y="370" width="120" height="60" as="geometry" />
        </mxCell>
        <mxCell id="qAn1MQmWVa7BwKA9rdGR-21" value="thông báo chưa đạt" style="shape=parallelogram;perimeter=parallelogramPerimeter;whiteSpace=wrap;html=1;fixedSize=1;" vertex="1" parent="1">
          <mxGeometry x="500" y="370" width="120" height="60" as="geometry" />
        </mxCell>
        <mxCell id="qAn1MQmWVa7BwKA9rdGR-24" value="" style="edgeStyle=orthogonalEdgeStyle;rounded=0;orthogonalLoop=1;jettySize=auto;html=1;" edge="1" parent="1" source="qAn1MQmWVa7BwKA9rdGR-23" target="qAn1MQmWVa7BwKA9rdGR-19">
          <mxGeometry relative="1" as="geometry" />
        </mxCell>
        <mxCell id="qAn1MQmWVa7BwKA9rdGR-25" value="" style="edgeStyle=orthogonalEdgeStyle;rounded=0;orthogonalLoop=1;jettySize=auto;html=1;" edge="1" parent="1" source="qAn1MQmWVa7BwKA9rdGR-23" target="qAn1MQmWVa7BwKA9rdGR-21">
          <mxGeometry relative="1" as="geometry" />
        </mxCell>
        <mxCell id="qAn1MQmWVa7BwKA9rdGR-23" value="end" style="ellipse;whiteSpace=wrap;html=1;" vertex="1" parent="1">
          <mxGeometry x="320" y="440" width="120" height="80" as="geometry" />
        </mxCell>
      </root>
    </mxGraphModel>
  </diagram>
</mxfile>
